<svg id="Capa_1" data-name="Capa 1" xmlns="http://www.w3.org/2000/svg" viewBox="0 0 224.36 88.39"><defs><style>.cls-1{font-size:25.39px;font-family:MyriadPro-Regular, Myriad Pro;letter-spacing:-0.01em;}.cls-2{letter-spacing:0em;}</style></defs><title>logo_welovefood</title><path d="M35.52,136.11V85.75H27.31V77.66h8.21V74.89c0-8.22,1.81-15.7,6.77-20.41A20.29,20.29,0,0,1,56.53,49a24.73,24.73,0,0,1,9.06,1.69L64.14,59a15.77,15.77,0,0,0-6.76-1.33c-9.06,0-11.35,8-11.35,16.9v3.14H60.16v8.09H46v50.36Z" transform="translate(-27.31 -49.04)"/><path d="M121,106.4c0,21.62-15,31-29.1,31-15.82,0-28-11.59-28-30.07,0-19.56,12.8-31,29-31C109.67,76.34,121,88.53,121,106.4ZM74.65,107c0,12.8,7.36,22.46,17.75,22.46,10.14,0,17.75-9.54,17.75-22.7,0-9.91-5-22.46-17.51-22.46S74.65,95.9,74.65,107Z" transform="translate(-27.31 -49.04)"/><path d="M251.19,50.37V121c0,5.19.12,11.11.48,15.09h-9.54L241.65,126h-.24c-3.26,6.52-10.39,11.47-19.93,11.47-14.12,0-25-12-25-29.71-.12-19.44,11.95-31.39,26.2-31.39,8.94,0,15,4.22,17.63,8.93h.24V50.37Zm-10.63,51.08a18.75,18.75,0,0,0-.48-4.46,15.62,15.62,0,0,0-15.33-12.32c-11,0-17.52,9.66-17.52,22.58,0,11.83,5.8,21.62,17.27,21.62,7.13,0,13.65-4.71,15.58-12.68a18.59,18.59,0,0,0,.48-4.59Z" transform="translate(-27.31 -49.04)"/><text class="cls-1" transform="translate(49.75 63.85)">w<tspan class="cls-2" x="18.43" y="0">e</tspan></text><path d="M178.8,80.38c-8.64-2-15.31,1.52-20.13,8.91-.4-.43-.75-.76-1-1.14s-.49-.84-.79-1.21c-4.58-5.69-10.63-8.07-17.69-6.72-6.59,1.26-11.59,5.11-13.23,11.92-1.8,7.46,1.09,13.65,5.75,19a4.86,4.86,0,0,1,8.08,2,4.78,4.78,0,0,1,2.89-.88,4.66,4.66,0,0,1,4.81,4.5c3.47.55,4.63,4.31,3.51,7,2.69,1.59,3,5.72,1,7.92q2.12,2.13,4.22,4.29c1.92,2,3.14,1.85,5-.06,7.46-7.65,15.18-15,22.53-22.77A35.28,35.28,0,0,0,190,104C194.91,93.53,190,83.05,178.8,80.38Z" transform="translate(-27.31 -49.04)"/></svg>