<svg id="Capa_1" data-name="Capa 1" xmlns="http://www.w3.org/2000/svg" viewBox="0 0 151.57 131.33"><title>favicon_welovefood</title><path d="M191.48,29.65c-19.7-4.69-34.89,3.47-45.88,20.29-.91-1-1.71-1.73-2.37-2.59s-1.11-1.9-1.8-2.76c-10.44-13-24.21-18.4-40.3-15.32C86.11,32.14,74.72,40.91,71,56.43c-4.1,17,2.49,31.12,13.1,43.25A10.52,10.52,0,0,1,92,96.46a10.39,10.39,0,0,1,10.49,7.84,10.86,10.86,0,0,1,6.57-2c6.86,0,10.51,5,11,10.26,7.91,1.26,10.55,9.82,8,16,6.15,3.62,6.87,13,2.2,18q4.83,4.88,9.62,9.79c4.38,4.51,7.15,4.2,11.39-.15,17-17.42,34.58-34.26,51.34-51.89A81.1,81.1,0,0,0,217,83.46C228.19,59.62,217,35.73,191.48,29.65Z" transform="translate(-69.75 -28.34)"/></svg>